<?xml version="1.0" standalone="no"?>
<!DOCTYPE svg PUBLIC "-//W3C//DTD SVG 20010904//EN"
 "http://www.w3.org/TR/2001/REC-SVG-20010904/DTD/svg10.dtd">
<svg version="1.0" xmlns="http://www.w3.org/2000/svg"
 width="337.000000pt" height="337.000000pt" viewBox="0 0 337.000000 337.000000"
 preserveAspectRatio="xMidYMid meet">
<metadata>
Created by potrace 1.14, written by Peter Selinger 2001-2017
</metadata>
<g transform="translate(0.000000,337.000000) scale(0.100000,-0.100000)"
fill="#000000" stroke="none">
<path d="M1331 3348 c7 -13 60 -96 120 -185 99 -148 139 -214 139 -227 0 -3
-29 6 -64 19 -63 24 -211 61 -276 70 -47 6 -209 7 -239 0 -36 -7 -36 -12 1
-31 37 -19 147 -92 165 -109 8 -9 -15 -17 -98 -33 -169 -34 -301 -101 -198
-102 23 0 159 -38 159 -45 0 -1 -26 -18 -57 -38 -72 -46 -89 -60 -134 -117
-34 -43 -54 -80 -43 -80 3 0 13 4 23 10 10 5 51 18 90 29 l73 20 -16 -24 c-9
-14 -23 -36 -32 -50 -9 -13 -22 -46 -30 -72 -18 -59 -30 -183 -18 -183 5 1 26
23 47 50 21 28 47 55 58 60 17 10 19 7 19 -37 0 -84 55 -257 89 -277 5 -4 17
16 26 44 9 27 20 50 25 50 4 0 10 -18 14 -39 8 -49 67 -192 102 -244 14 -21
23 -41 21 -44 -13 -12 -139 -2 -202 18 -76 23 -118 49 -182 117 -104 108 -159
278 -135 425 11 68 7 70 -92 33 -141 -53 -285 -168 -375 -299 -20 -29 -42 -58
-49 -65 -6 -7 -12 -18 -12 -24 0 -6 -3 -9 -6 -5 -7 7 11 102 37 187 60 200
129 339 242 487 77 100 128 154 232 240 100 83 117 102 120 138 4 36 -36 75
-78 75 -44 0 -136 -67 -247 -181 -118 -121 -137 -143 -198 -232 -184 -273
-271 -538 -276 -850 -4 -232 61 -543 141 -675 l20 -32 27 58 c27 57 28 59 13
116 -15 57 -16 189 -2 261 22 112 86 255 166 374 59 88 127 172 111 136 -27
-58 -31 -221 -8 -333 17 -77 52 -161 71 -168 6 -3 37 10 69 28 46 27 56 37 51
53 -38 131 -53 266 -34 296 7 11 9 11 9 1 0 -8 20 -44 44 -82 52 -80 131 -146
222 -187 66 -29 76 -38 46 -40 -44 -3 -213 -67 -275 -104 -387 -230 -555 -646
-415 -1030 38 -102 74 -156 172 -255 75 -75 106 -98 176 -131 79 -38 185 -75
255 -88 67 -13 254 -13 343 1 80 12 337 71 522 119 30 8 66 16 80 19 14 2 57
11 95 20 114 24 291 45 412 49 34 1 57 5 50 8 -10 5 -85 22 -94 21 -2 -1 -16
3 -33 8 -88 25 -442 29 -565 6 -11 -2 -51 -7 -90 -11 -38 -4 -72 -8 -75 -10
-3 -2 -55 -7 -115 -11 -251 -18 -361 -3 -512 66 -103 48 -173 112 -215 197
-27 55 -32 76 -32 141 0 68 4 85 33 145 37 74 93 143 137 169 l29 16 -40 -82
c-22 -45 -52 -115 -65 -155 l-25 -73 30 -24 c44 -37 217 -119 321 -152 217
-71 448 -83 684 -36 117 24 327 99 415 150 152 88 322 229 413 344 l20 24 -72
19 c-39 11 -78 20 -87 21 -9 0 -52 -33 -95 -74 -44 -42 -96 -88 -116 -104
l-37 -28 -110 37 -109 36 10 42 c5 23 11 47 12 52 1 6 10 53 20 107 l18 96
-68 65 c-38 36 -92 86 -121 112 -47 43 -51 50 -42 73 5 14 10 40 11 59 2 41
13 41 67 1 43 -31 43 -32 37 -79 -5 -37 -3 -51 11 -64 16 -16 18 -15 31 21 20
57 23 235 6 318 -30 137 -95 234 -295 437 -141 143 -171 183 -200 264 -17 48
-18 49 -24 22 -9 -34 2 -94 21 -125 l15 -23 -60 3 c-60 3 -61 3 -76 41 -34 84
-12 170 61 244 39 40 64 55 108 68 31 9 62 14 69 12 8 -4 7 -6 -3 -6 -27 -2
-120 -111 -120 -141 0 -6 15 -8 35 -5 40 5 45 0 47 -52 l1 -38 49 4 c68 4 128
-21 177 -74 70 -76 97 -153 80 -232 -6 -31 -6 -31 19 -22 26 10 128 65 184 99
l31 19 -61 7 c-66 7 -70 12 -67 77 2 36 -7 44 -47 38 -9 -1 -81 75 -118 126
l-32 43 59 -6 c120 -13 201 -75 206 -158 2 -31 5 -35 22 -28 11 4 39 7 62 7
36 0 47 -6 72 -35 17 -19 30 -41 31 -47 0 -26 17 -12 42 35 39 71 79 175 71
182 -5 3 -42 33 -83 66 -126 100 -120 93 -120 144 0 47 0 47 -69 93 -61 40
-73 54 -106 119 -80 156 -217 339 -330 442 -70 63 -75 66 -62 35 13 -30 50
-94 143 -249 15 -25 52 -92 81 -150 46 -89 50 -100 26 -75 -16 17 -44 51 -64
76 -73 97 -248 274 -356 360 -61 49 -114 89 -118 89 -3 0 0 -10 6 -22z m659
-668 c14 -10 33 -32 43 -49 l18 -31 -36 0 c-30 0 -44 8 -84 50 -27 28 -54 50
-60 50 -6 0 -11 4 -11 9 0 13 102 -9 130 -29z m211 -270 l24 -21 -35 14 c-19
8 -41 12 -49 9 -8 -3 -11 0 -7 7 11 17 41 13 67 -9z m-551 -286 l65 -64 -60 0
c-60 0 -61 1 -111 53 -87 91 -87 89 -18 82 56 -6 62 -10 124 -71z m166 -167
c31 -33 94 -121 94 -132 0 -3 -5 -3 -10 0 -6 4 -22 8 -35 11 -14 2 -37 6 -52
9 -16 2 -39 17 -52 32 -13 15 -41 47 -62 69 -21 23 -36 44 -33 47 3 3 31 3 62
1 48 -4 62 -10 88 -37z m59 -196 c72 -9 79 -15 100 -88 9 -31 23 -123 19 -123
-2 0 -31 14 -63 31 -57 30 -60 34 -70 81 -6 27 -18 62 -26 78 -20 38 -19 41 8
31 12 -5 27 -9 32 -10z m-312 -571 l26 -84 -50 -53 c-27 -28 -49 -54 -49 -57
0 -5 61 21 132 57 46 24 46 25 22 36 -31 14 -32 35 -1 28 12 -3 61 -13 108
-22 l87 -17 -3 -37 c-2 -20 -6 -86 -10 -147 l-7 -110 72 -60 71 -59 -70 -22
c-39 -12 -89 -24 -110 -28 -38 -6 -41 -5 -59 32 -11 21 -50 66 -87 101 l-67
63 -159 0 c-87 -1 -159 1 -159 4 0 2 14 12 32 21 50 26 191 174 218 229 22 44
25 62 24 160 -1 67 2 98 7 80 4 -16 18 -68 32 -115z m-55 -569 c15 -10 34 -21
42 -25 8 -3 -28 -4 -80 -1 -160 7 -227 27 -113 33 32 2 59 5 62 7 11 12 65 3
89 -14z"/>
<path d="M1986 3216 c-18 -14 -27 -31 -28 -51 -2 -61 22 -83 138 -126 174 -65
465 -315 576 -496 70 -112 121 -211 141 -274 3 -11 35 -24 92 -38 48 -12 89
-20 91 -18 9 9 -60 185 -113 285 -151 289 -396 523 -718 685 -113 56 -143 62
-179 33z"/>
<path d="M2604 2156 c-162 -37 -328 -174 -385 -318 -41 -104 -48 -141 -46
-238 4 -113 30 -200 86 -288 94 -145 264 -243 441 -256 41 -3 46 -6 57 -37 7
-19 12 -42 12 -53 1 -16 6 -17 49 -10 26 4 57 8 68 8 19 1 21 5 16 36 -13 75
-10 81 38 97 172 59 318 235 347 420 43 274 -104 525 -363 620 -86 31 -229 40
-320 19z m270 -152 c194 -64 310 -263 274 -467 -35 -192 -214 -339 -412 -339
-155 0 -287 78 -378 223 -47 75 -60 217 -29 321 12 39 67 125 110 171 90 98
289 139 435 91z"/>
<path d="M2621 1939 c-78 -23 -170 -103 -201 -174 -37 -86 -46 -176 -20 -207
28 -35 50 -17 50 41 0 74 33 152 84 199 45 41 114 82 139 82 25 0 40 26 27 49
-12 23 -27 24 -79 10z"/>
<path d="M2869 916 c-3 -3 -20 -8 -39 -11 -73 -13 -98 -50 -86 -123 21 -118
90 -433 103 -470 25 -70 95 -100 169 -72 31 12 48 31 69 77 15 34 14 48 -11
158 -9 39 -17 81 -19 95 -2 27 -39 198 -57 268 -13 51 -48 82 -93 82 -17 0
-34 -2 -36 -4z"/>
</g>
</svg>
